<svg width="86" height="87" viewBox="0 0 86 87" fill="none" xmlns="http://www.w3.org/2000/svg">
<path d="M59.0039 18.5418C62.7877 17.4022 66.4791 17.2526 71.9585 15.3639L74.2447 5.95166L69.2644 1.51608C67.7174 0.138245 65.5654 -0.34844 63.5835 0.254764C56.2395 2.48995 51.1091 4.38914 46.301 7.10043C35.8189 13.0112 31.7661 25.9337 35.7889 37.2751C39.4728 47.6611 44.2089 57.8191 46.6959 68.4582C48.6573 69.6554 55.0737 78.5978 61.0595 71.877C62.7441 69.9855 63.5179 67.4353 63.0092 64.9541C60.7682 54.0216 56.4491 43.343 52.7742 32.8648C50.8045 27.0541 53.1291 20.3112 59.0039 18.5418Z" fill="url(#paint0_radial_22_264)"/>
<path d="M85.6114 20.5052C85.8739 17.5455 84.2358 14.8501 82.017 12.8739L69.0173 1.29605C75.8626 8.17214 71.0995 17.7387 64.9254 25.8886C60.0046 32.3842 60.5303 41.5009 66.8747 46.6151C67.7084 47.2871 68.9176 47.2076 69.6539 46.4301C76.4236 39.281 84.745 30.2728 85.6114 20.5052Z" fill="url(#paint1_linear_22_264)"/>
<path d="M61.0594 71.877L49.9194 84.6424C48.9517 85.7514 47.6547 86.5998 46.1843 86.6655C33.6 87.2281 29.1267 65.7179 0.784199 42.1728C-0.14433 41.4015 -0.272718 40.0025 0.530131 39.1011C5.95966 33.0048 15.3496 32.4401 20.9727 38.3584C42.1111 60.6062 49.8039 79.2928 61.0594 71.877Z" fill="url(#paint2_linear_22_264)"/>
<defs>
<radialGradient id="paint0_radial_22_264" cx="0" cy="0" r="1" gradientUnits="userSpaceOnUse" gradientTransform="translate(37.6683 27.0893) rotate(59.9571) scale(81.7588 67.5943)">
<stop offset="0.233238" stop-color="#68EDFF"/>
<stop offset="0.823471" stop-color="#DB00FF"/>
</radialGradient>
<linearGradient id="paint1_linear_22_264" x1="81.2677" y1="10.7081" x2="99.3655" y2="61.4861" gradientUnits="userSpaceOnUse">
<stop stop-color="#F372EE"/>
<stop offset="0.38552" stop-color="#D700CE"/>
</linearGradient>
<linearGradient id="paint2_linear_22_264" x1="54.5387" y1="80.3846" x2="-0.313285" y2="36.7668" gradientUnits="userSpaceOnUse">
<stop stop-color="#F372EE"/>
<stop offset="0.38552" stop-color="#D700CE"/>
</linearGradient>
</defs>
</svg>
